<?xml version="1.0" standalone="no"?><!DOCTYPE svg PUBLIC "-//W3C//DTD SVG 1.1//EN" "http://www.w3.org/Graphics/SVG/1.1/DTD/svg11.dtd"><svg t="1580726464704" class="icon" viewBox="0 0 1656 1024" version="1.1" xmlns="http://www.w3.org/2000/svg" p-id="3923" xmlns:xlink="http://www.w3.org/1999/xlink" width="323.4375" height="200"><defs><style type="text/css"></style></defs><path d="M1517.626503 1022.793991a709.9473 709.9473 0 1 0-1373.588645 0z" fill="#FAFCFF" p-id="3924"></path><path d="M1398.66262 1022.793991a595.726412 595.726412 0 1 0-1135.584879 0z" fill="#F0F7FE" p-id="3925"></path><path d="M1176.54484 1022.793991a389.947615 389.947615 0 1 0-691.349319 0z" fill="#E7EEFC" p-id="3926"></path><path d="M1232.186785 893.063119H422.474583a15.058985 15.058985 0 0 1 0-30.11797h809.712202a15.058985 15.058985 0 0 1 0 30.11797z m144.112858 0h-76.196925a15.058985 15.058985 0 0 1 0-30.11797h76.196925a15.058985 15.058985 0 0 1 0 30.11797z m230.399772 130.935871h-76.196925a15.058985 15.058985 0 1 1 0-30.11797h76.196925a15.058985 15.058985 0 1 1 0 30.11797z m-1451.292568 0H79.209922a15.058985 15.058985 0 0 1 0-30.11797h76.197925a15.058985 15.058985 0 1 1 0 30.11797z m204.949798-130.935871H284.15972a15.058985 15.058985 0 1 1 0-30.11797h76.197925a15.058985 15.058985 0 0 1 0 30.11797zM593.619414 1023.99899h-21.383978a15.058985 15.058985 0 0 1 0-30.11797h21.609978a15.058985 15.058985 0 1 1 0 30.11797z m850.069162 0H655.059354a15.058985 15.058985 0 1 1 0-30.11797h788.629222a15.058985 15.058985 0 0 1 0 30.11797z m-926.417086 0H229.119774a15.058985 15.058985 0 0 1 0-30.11797h288.149716a15.058985 15.058985 0 1 1 0 30.11797z m592.036416-736.526274a12.046988 12.046988 0 0 1 7.529992 6.173994 90.352911 90.352911 0 0 0 61.36394 43.820957 0.978999 0.978999 0 1 1 0 1.882998c-15.810984 4.592995-32.450968 0-47.133954-6.249994a71.754929 71.754929 0 0 1-33.203967-24.921975 14.606986 14.606986 0 0 1-2.108998-14.380986 11.594989 11.594989 0 0 1 13.176987-6.324994z m0 0" fill="#8A98B6" p-id="3927"></path><path d="M1058.332956 297.185707a113.693888 113.693888 0 0 0 100.592901 54.738946 39.077961 39.077961 0 0 0 23.189977-7.002993c9.86399-7.529993 14.456986-19.349981 23.642977-27.255973a77.401924 77.401924 0 0 1 23.265977-13.552987 70.324931 70.324931 0 0 1 49.99495 0.752999 73.486928 73.486928 0 0 1 35.162966 30.79497 182.21182 182.21182 0 0 1 12.121988 28.987971c4.140996 9.71299 14.380986 14.456986 21.458979 21.684979 0.526999-2.182998 1.579998-6.022994 4.592995-5.044995a8.432992 8.432992 0 0 1 2.182998 10.39099 22.587978 22.587978 0 0 1 16.187984-4.065996c1.581998 0.601999 0.526999 2.409998 0 3.312996a19.651981 19.651981 0 0 1-14.530986 5.420995 6.474994 6.474994 0 0 0 1.203999 1.957998 290.409714 290.409714 0 0 1 40.43296 48.262953 74.164927 74.164927 0 0 1 11.896989 28.912971 57.975943 57.975943 0 0 1-7.529993 32.075968 58.578942 58.578942 0 0 1-109.777892-31.548969 67.764933 67.764933 0 0 1 10.16399-26.803973 290.634713 290.634713 0 0 1 44.423956-53.383947 33.957967 33.957967 0 0 0-25.976974 4.366995 69.872931 69.872931 0 0 0-21.307979 22.587978 269.477734 269.477734 0 0 1-43.594957 51.576949 185.900817 185.900817 0 0 1-135.002867 43.820957 183.491819 183.491819 0 0 1-106.539895-44.121957 3.839996 3.839996 0 0 1 3.236997-6.173993 131.38787 131.38787 0 0 0 57.449943-9.035992 66.333935 66.333935 0 0 0 23.565977-16.187984 10.54099 10.54099 0 0 0 2.409998-10.08999 14.455986 14.455986 0 0 0-7.529993-7.528992 121.44988 121.44988 0 0 1-35.010965-33.505967 119.566882 119.566882 0 0 1-17.166983-40.65796 121.072881 121.072881 0 0 1 1.203999-52.179949 8.733991 8.733991 0 0 1 15.660984-1.881998" fill="#5677FC" p-id="3928"></path><path d="M1306.652711 343.717661a12.799987 12.799987 0 1 0 10.01399 15.886984 12.874987 12.874987 0 0 0-10.01399-15.886984z" fill="#FFFFFF" p-id="3929"></path><path d="M825.524186 404.629601a30.04197 30.04197 0 1 0 60.08394 0 30.04197 30.04197 0 1 0-60.08394 0zM655.510353 404.629601a30.04197 30.04197 0 1 0 60.083941 0 30.04197 30.04197 0 1 0-60.083941 0zM485.495521 404.629601a30.04197 30.04197 0 1 0 60.084941 0 30.04197 30.04197 0 1 0-60.084941 0z" fill="#8A98B6" p-id="3930"></path><path d="M1314.708703 726.211284H1439.69858a36.743964 36.743964 0 1 1 0-73.486928h172.79983a36.743964 36.743964 0 1 1 0 73.486928h-107.143895a36.743964 36.743964 0 0 1 0 73.486927h-190.643812a36.743964 36.743964 0 0 1 0-73.486927z" fill="#FFFFFF" p-id="3931"></path><path d="M1505.353515 807.227204h-190.643812a44.272956 44.272956 0 0 1 0-88.545913h91.70791a44.272956 44.272956 0 0 1 33.279967-73.486927h172.79983a44.272956 44.272956 0 1 1 0 88.545912h-73.863928a44.272956 44.272956 0 0 1-33.279967 73.486928z m-190.643812-73.486928a29.213971 29.213971 0 0 0 0 58.427943h190.643812a29.213971 29.213971 0 0 0 0-58.427943v-15.058985H1612.49841a29.213971 29.213971 0 1 0 0-58.427942h-172.87483a29.213971 29.213971 0 1 0 0 58.427942v15.059985z" fill="#8A98B6" p-id="3932"></path><path d="M102.700899 537.82547h89.072912a26.201974 26.201974 0 1 1 0-52.705948h123.029879a26.201974 26.201974 0 1 1 0 52.705948h-76.271925a26.201974 26.201974 0 0 1 0 52.705948h-135.529867a26.201974 26.201974 0 0 1 0-52.705948z" fill="#FFFFFF" p-id="3933"></path><path d="M238.531765 597.75941h-135.529867a33.731967 33.731967 0 0 1 0-67.764933h60.91294A33.731967 33.731967 0 0 1 191.999811 477.289529h122.804878a33.731967 33.731967 0 1 1 0 67.764933h-48.188952a33.655967 33.655967 0 0 1-28.083972 52.705948z m-135.529867-52.705948a18.672982 18.672982 0 0 0 0 37.646963h135.529867a18.672982 18.672982 0 0 0 0-37.646963v-15.058985h76.272924a18.672982 18.672982 0 1 0 0-37.646963h-123.029878a18.672982 18.672982 0 0 0 0 37.646963v15.059985z" fill="#8A98B6" p-id="3934"></path><path d="M746.239264 641.505367h162.860839q18.296982 0 18.296982 18.295982V858.879153q0 18.295982-18.296982 18.295982H746.239264q-18.295982 0-18.295982-18.295982V659.801349q0-18.295982 18.295982-18.295982z" fill="#FFFFFF" p-id="3935"></path><path d="M909.100103 892.23412H746.164264a33.354967 33.354967 0 0 1-33.279967-33.279967V659.801349a33.354967 33.354967 0 0 1 33.279967-33.354967H909.099103a33.354967 33.354967 0 0 1 33.354967 33.279967V858.879153a33.354967 33.354967 0 0 1-33.354967 33.354967z m-162.935839-235.669768a3.237997 3.237997 0 0 0-3.162997 3.161997V858.879153a3.237997 3.237997 0 0 0 3.162997 3.161997H909.099103a3.237997 3.237997 0 0 0 3.237997-3.161997V659.801349a3.237997 3.237997 0 0 0-3.237997-3.161997z" fill="#8A98B6" p-id="3936"></path><path d="M720.488289 534.587473h125.364877q20.02798 0 20.02798 20.02798v302.531702q0 20.02798-20.02798 20.02798H720.489289q-20.02798 0-20.02798-20.02798V554.615453q0-20.02798 20.02798-20.02798z" fill="#FFFFFF" p-id="3937"></path><path d="M845.853166 519.529488H720.489289a35.161965 35.161965 0 0 0-35.312965 35.085965v302.456702a35.161965 35.161965 0 0 0 35.087966 35.086965h125.363876a35.161965 35.161965 0 0 0 35.086965-35.086965V554.615453a35.161965 35.161965 0 0 0-34.859965-35.086965z m4.969995 337.617667a5.044995 5.044995 0 0 1-4.969995 4.969995H720.489289a5.044995 5.044995 0 0 1-4.968995-4.969995V554.615453a5.044995 5.044995 0 0 1 4.969995-4.968995h125.363877a5.044995 5.044995 0 0 1 4.969995 4.969995z" fill="#8A98B6" p-id="3938"></path><path d="M730.20128 717.778292h42.541958v15.811984h-42.541958z m0 57.449943h42.541958v15.810985h-42.541958z m0-113.919887h42.541958v15.810984h-42.541958z m63.472937 0h42.540958v15.810984h-42.539958z m-63.472937-56.395945h42.541958v15.811985h-42.541958z m63.472937 0h42.540958v15.811985h-42.539958z m0 112.865889h42.540958v15.811984h-42.539958z m0 57.449943h42.540958v15.810985h-42.539958z" fill="#5677FC" p-id="3939"></path></svg>
