<?xml version="1.0" standalone="no"?><!DOCTYPE svg PUBLIC "-//W3C//DTD SVG 1.1//EN" "http://www.w3.org/Graphics/SVG/1.1/DTD/svg11.dtd"><svg t="1580801009817" class="icon" viewBox="0 0 1381 1024" version="1.1" xmlns="http://www.w3.org/2000/svg" p-id="3458" xmlns:xlink="http://www.w3.org/1999/xlink" width="269.7265625" height="200"><defs><style type="text/css"></style></defs><path d="M994.265905 607.534166l10.868503-6.70804c1.032508-0.65211 2.051973-1.352042 3.099698-2.008499a103.818118 103.818118 0 0 1-86.111153-97.488302 102.737789 102.737789 0 0 1 8.962168-47.288858 103.992014 103.992014 0 0 1 66.658705-57.509599l-0.539078 42.778429 23.499878-46.560668a0.934691 0.934691 0 0 1 0.291276 0 103.802902 103.802902 0 0 1 108.532875 98.855559c0.086948 1.978068 0 3.927877 0 5.821171a124.118309 124.118309 0 0 0 20.521908-30.275303c9.953375-22.189136 10.185961-47.31929 9.346913-77.859785-1.571586-60.531043-4.175679-121.509868-7.581868-182.31697a103.744212 103.744212 0 0 1-92.177951-98.201276c-0.145638-3.186645-0.102164-6.3146 0-9.429513a15.62456 15.62456 0 0 1 0.115206-2.328034c0.204328-3.012749 0.480388-5.995066 0.94556-8.933909a8.477433 8.477433 0 0 1 0.263018-1.454206q0.641242-3.738765 1.52159-7.390582c0.232586-0.902086 0.45213-1.819387 0.697758-2.721474a78.570585 78.570585 0 0 1 2.458456-7.825322c0.306492-0.858612 0.6695-1.686792 0.989033-2.532361 0.741232-1.89112 1.541154-3.753981 2.391071-5.601627 0.45213-0.975992 0.88687-1.934594 1.367258-2.910585 0.115206-0.247802 0.21737-0.495604 0.349966-0.741232a103.73117 103.73117 0 0 1 121.875049-52.642683l-0.697758 55.670648 23.280335-45.980291a103.163834 103.163834 0 0 1 49.471253 111.849942h0.11738c-0.160854 0.741232-0.39344 1.454206-0.567336 2.173701a97.273105 97.273105 0 0 1-1.047724 4.073515c-0.495604 1.738961-1.047724 3.434447-1.615059 5.136455-0.43474 1.265094-0.858612 2.560619-1.339 3.812671a75.355681 75.355681 0 0 1-2.299775 5.412514c-0.465172 1.047724-0.88687 2.110663-1.454206 3.143172q-1.993284 4.014825-4.364791 7.857928c-0.539078 0.88687-1.149888 1.738961-1.717223 2.60844a106.624366 106.624366 0 0 1-3.434447 5.077765c-0.741232 1.019466-1.543327 1.993284-2.328034 2.997533a72.797236 72.797236 0 0 1-3.506179 4.234369c-0.858612 0.975992-1.738961 1.934594-2.634525 2.910586a98.079548 98.079548 0 0 1-3.927877 3.912661c-0.88687 0.858612-1.788956 1.717224-2.721474 2.532361-1.52159 1.354216-3.127955 2.647567-4.743014 3.912661-0.815138 0.641242-1.599844 1.30422-2.445414 1.921552q-3.680075 2.734515-7.607952 5.136454c-0.495604 0.291276-1.019466 0.539078-1.454206 0.830354-2.173701 1.30422-4.364791 2.501929-6.70804 3.636601-0.975992 0.480388-1.993284 0.902086-2.997533 1.354216-1.875904 0.843396-3.769197 1.658534-5.703791 2.391071-1.12163 0.421698-2.269344 0.815138-3.419231 1.208577-1.906335 0.65211-3.840929 1.252052-5.82117 1.788956-1.16293 0.319534-2.312818 0.641242-3.490964 0.917301-2.123706 0.508646-4.293059 0.930344-6.475454 1.304221a0.739058 0.739058 0 0 0-0.421698 0.086948q2.154137 38.474502 3.825713 76.985957a103.744212 103.744212 0 0 1 144.051144-45.034731l-18.348207 50.271176 37.744138-36.244285a103.5138 103.5138 0 0 1 33.47499 71.675606 101.590075 101.590075 0 0 1-2.634525 28.592858 103.759428 103.759428 0 0 1-190.850919 28.271151c0 2.608441 0.189112 5.216882 0.263018 7.825323 0.684716 26.953888 1.543327 60.472353-11.887969 90.425948-9.094764 20.298017-23.745506 36.783363-38.224527 51.553659a638.850629 638.850629 0 0 1-29.188452 27.921185 103.802902 103.802902 0 0 1-37.481121 31.16652q-24.662808 19.002491-51.081966 35.590001l-10.694607 6.897153c-9.87947 6.125489-19.998046 12.411831-29.944901 18.911196 1.738961-0.173896 3.477921-0.363008 5.253835-0.434741a103.846376 103.846376 0 0 1 102.200884 67.569486l-64.865401 52.803537 71.297382-16.544036a103.846376 103.846376 0 0 1-148.822417 93.486519c1.599844 2.008499 3.214903 4.001783 4.816921 5.995066 3.186645 3.971351 6.358074 7.916618 9.457771 11.829279 42.195878 53.444779 53.953424 104.196342 33.040251 142.88604l-25.406214-13.735614c20.369749-37.657191-10.185961-85.848134-30.307908-111.254348-3.043181-3.840929-6.153747-7.71229-9.296918-11.640167-26.953888-33.47499-57.518294-71.471278-56.74663-118.049337 1.091198-70.130105 69.317141-112.428146 124.085703-146.359614z" fill="#F2F2F2" p-id="3459"></path><path d="M0 993.442116a662.776552 30.55571 0 1 0 1325.553104 0 662.776552 30.55571 0 1 0-1325.553104 0Z" fill="#3F3D56" p-id="3460"></path><path d="M1254.853489 804.532311a20.458871 20.458871 0 0 0-10.185961-16.737495l-4.564771 9.05129 0.130422-10.94241a20.41757 20.41757 0 1 0 14.550752 18.624268z" fill="#57B793" p-id="3461"></path><path d="M1218.430961 942.764458a20.369749 20.369749 0 1 1 0.973818-16.441872l-12.746581 10.375074 14.02689-3.260551a20.374096 20.374096 0 0 1-2.254127 9.327349z" fill="#57B793" p-id="3462"></path><path d="M1208.347163 903.053121a20.371923 20.371923 0 0 1-21.330524-19.454621 20.080647 20.080647 0 0 1 1.760697-9.296918 20.458871 20.458871 0 0 1 13.096547-11.311938l-0.102164 8.425263 4.627809-9.166495a20.432786 20.432786 0 0 1 1.906335 40.813404z" fill="#57B793" p-id="3463"></path><path d="M1257.920581 870.010697a20.39366 20.39366 0 1 1 9.020858-38.150621l-3.608343 9.894686 7.421014-7.129739a20.369749 20.369749 0 0 1 6.605876 14.098623 19.919793 19.919793 0 0 1-0.523862 5.616843 20.369749 20.369749 0 0 1-18.911196 15.670208z" fill="#57B793" p-id="3464"></path><path d="M1252.101584 809.916568c-4.714757 0.523862-9.296918 1.993284-14.02689 2.284559s-9.922944-0.843396-12.920477-4.525645a64.569779 64.569779 0 0 1-3.782239-6.634134 14.563795 14.563795 0 0 0-5.136455-4.845179 20.369749 20.369749 0 1 0 38.181053 13.561719c-0.78688 0.028258-1.558543 0.086948-2.314992 0.15868z" opacity=".1" p-id="3465"></path><path d="M1257.922755 870.010697a20.371923 20.371923 0 0 1-19.426363-29.101505 15.122436 15.122436 0 0 1 4.103947 4.116989 65.78053 65.78053 0 0 0 4.045257 6.751514c3.171429 3.738765 8.614376 4.962559 13.546502 4.729973s9.677315-1.61506 14.550753-2.067189c0.6695 0 1.367258-0.11738 2.051973-0.130422a20.369749 20.369749 0 0 1-18.872069 15.70064z" opacity=".1" p-id="3466"></path><path d="M1208.347163 903.055294a20.371923 20.371923 0 0 1-21.330524-19.454621 20.080647 20.080647 0 0 1 1.760697-9.296917 16.754885 16.754885 0 0 1 4.364791 4.14742c1.586801 2.241085 2.575835 4.816921 4.364791 6.881937 3.447489 3.840929 9.240402 5.195145 14.463804 5.062549s9.922944-1.354216 14.957235-1.738961a20.458871 20.458871 0 0 1-18.580794 14.389899z" opacity=".1" p-id="3467"></path><path d="M1218.430961 942.766632a20.411049 20.411049 0 1 1-37.235493-16.737495 21.195755 21.195755 0 0 1 4.482171 4.001783 80.392146 80.392146 0 0 0 5.471205 7.275376c4.175679 4.088731 10.911977 5.82117 16.907044 5.936376a87.515363 87.515363 0 0 0 10.375073-0.480387z" opacity=".1" p-id="3468"></path><path d="M1167.431596 972.809349s16.107122-0.495604 20.967516-3.958309 24.736714-7.59491 26.001808-2.036757 24.225894 27.645125 6.023324 27.734247-42.282826-2.910585-47.130178-5.821171-5.862471-15.91801-5.86247-15.91801z" fill="#656380" p-id="3469"></path><path d="M1220.743778 992.611762c-18.187354 0.145638-42.282826-2.910585-47.130178-5.82117-3.680075-2.241085-5.164713-10.316383-5.651621-14.042107h-0.539078s1.019466 12.994383 5.818997 16.004959 28.925435 5.936377 47.130178 5.82117c5.253835 0 7.071048-1.921551 6.968884-4.686499-0.673847 1.647665-2.682347 2.695389-6.597182 2.723647z" opacity=".2" p-id="3470"></path><path d="M144.848892 504.326858a49.777745 49.777745 0 0 1 24.85192-40.741671l11.146737 22.043498-0.33475-26.686523a49.790788 49.790788 0 1 1-35.663907 45.430344z" fill="#57B793" p-id="3471"></path><path d="M233.638043 841.256984a49.76253 49.76253 0 0 0 93.982123-20.369749 49.125635 49.125635 0 0 0-3.245335-20.195853 49.792961 49.792961 0 0 0-93.123511 0.539078l31.094788 25.293181-34.207527-7.964439a49.223452 49.223452 0 0 0 5.499462 22.697782z" fill="#57B793" p-id="3472"></path><path d="M258.213903 744.614252a49.790788 49.790788 0 0 0 15.787588-97.662198l0.263018 20.502345-11.203253-22.306516h-0.130422a49.795135 49.795135 0 1 0-4.640851 99.481585z" fill="#57B793" p-id="3473"></path><path d="M137.356146 664.191675a49.792961 49.792961 0 1 0-22.000025-93.112643l8.729582 24.110688-18.028673-17.417863a49.560375 49.560375 0 0 0-16.150596 34.368381 48.553952 48.553952 0 0 0 1.265093 13.707357 49.777745 49.777745 0 0 0 46.182445 38.354948z" fill="#57B793" p-id="3474"></path><path d="M151.54389 517.605996c11.494529 1.265094 22.669524 4.829963 34.194485 5.542937s24.197636-2.036758 31.488228-11.0011c3.927877-4.829963 5.892903-10.942409 9.20997-16.209286a35.329157 35.329157 0 0 1 12.542253-11.801021A49.792961 49.792961 0 1 1 145.855315 517.171256c1.934594 0.091295 3.825713 0.21737 5.688575 0.43474z" opacity=".1" p-id="3475"></path><path d="M137.358319 664.193848a49.821219 49.821219 0 0 0 47.362764-71.006106 36.831184 36.831184 0 0 0-10.009891 10.009892c-3.549653 5.353825-5.688575 11.538003-9.864254 16.457087-7.755764 9.107806-20.995775 12.092297-33.014166 11.553219s-23.615084-3.973525-35.576959-5.064722a82.031116 82.031116 0 0 0-5.019075-0.306492 49.777745 49.777745 0 0 0 46.125929 38.354949z" opacity=".1" p-id="3476"></path><path d="M258.213903 744.612078a49.777745 49.777745 0 0 0 47.75403-70.090978 40.263458 40.263458 0 0 0-10.520711 10.185962c-3.871361 5.455989-6.286342 11.737984-10.811987 16.776621-8.394832 9.346913-22.50867 12.659633-35.242209 12.353141-12.324883-0.260844-24.197636-3.288809-36.448613-4.234369a49.821219 49.821219 0 0 0 45.26949 35.009623z" opacity=".1" p-id="3477"></path><path d="M233.638043 841.259158a49.76253 49.76253 0 0 0 93.982123-20.369749 49.125635 49.125635 0 0 0-3.245335-20.195853 49.864694 49.864694 0 0 0-10.911978 9.733832c-4.729973 5.82117-7.857928 12.309667-13.329132 17.693923-10.185961 9.981634-26.612617 14.113838-41.235102 14.550752a213.609565 213.609565 0 0 1-25.260576-1.410731z" opacity=".1" p-id="3478"></path><path d="M627.447395 966.233905l-192.066018 39.285292-4.364791-0.43474-168.785684-17.024424v-213.892146l206.61677-34.920502 149.870141 17.461338 0.043474 0.94556 0.015216 0.465171z" fill="#E94C4C" p-id="3479"></path><path d="M627.449569 966.233905l-192.068192 39.285292-4.364791-0.43474V785.808054l187.744701-28.155945z" opacity=".1" p-id="3480"></path><path d="M618.774329 758.117281l-0.05869 0.043474-187.701227 27.645125-168.785684-11.640167 206.616771-34.920502 149.87014 17.461338 0.043474 0.94556z" opacity=".05" p-id="3481"></path><path d="M838.43113 974.963486l-192.066018 39.285293-4.364791-0.43474-168.785684-17.024424v-213.892147l206.61677-34.920501 149.870141 17.461338 0.043474 0.945559 0.015216 0.465172z" fill="#3F3D56" p-id="3482"></path><path d="M838.43113 974.963486l-192.068192 39.285293-4.364791-0.43474V794.537636l187.744701-28.155945z" opacity=".1" p-id="3483"></path><path d="M829.758064 766.846863l-0.05869 0.043474-187.701227 27.645125-168.785684-11.640167L679.829234 747.974793l149.87014 17.461338 0.043474 0.94556z" opacity=".05" p-id="3484"></path><path d="M706.020153 765.436131l-192.066018 39.287466-4.364791-0.43474-168.785684-17.024424v-213.892146l206.616771-34.920502 149.87014 17.461338 0.043474 0.94556 0.015216 0.465172z" fill="#3F3D56" p-id="3485"></path><path d="M706.022327 765.436131l-192.068192 39.285292-4.364791-0.43474V585.01028l187.744701-28.155945z" opacity=".1" p-id="3486"></path><path d="M697.347087 557.319507l-0.058689 0.043474-187.701227 27.645125-168.785684-11.640167 206.61677-34.920501 149.870141 17.461337 0.043474 0.94556z" opacity=".05" p-id="3487"></path><path d="M815.148622 774.400473l-100.229338 20.515386-2.28456-0.232585-88.08922-8.890436v-111.632572l107.832944-18.230828 78.222792 9.129543 0.028258 0.495604v0.232586z" fill="#3F3D56" p-id="3488"></path><path d="M815.148622 774.398299l-100.238033 20.515387-2.284559-0.232586V680.24228l97.996947-14.69639z" opacity=".1" p-id="3489"></path><path d="M810.622977 665.78065l-0.028258 0.028258-97.968689 14.433372-88.08922-6.086362 107.832943-18.230827 78.222792 9.129543 0.028258 0.495603z" opacity=".05" p-id="3490"></path><path d="M545.964051 557.597741l-100.229338 20.500171-2.284559-0.21737-88.08922-8.890436v-111.632572l107.832943-18.230827 78.222793 9.129542 0.028258 0.495604v0.232586z" fill="#3F3D56" p-id="3491"></path><path d="M545.964051 557.595567l-100.238033 20.502345-2.284559-0.21737v-114.440993l97.996948-14.696391z" opacity=".1" p-id="3492"></path><path d="M541.438407 448.977918l-0.028259 0.028258-97.968689 14.433373-88.08922-6.086362 107.832943-18.230828 78.222793 9.129543 0.028258 0.495604z" opacity=".05" p-id="3493"></path><path d="M722.025111 553.230776l-100.229338 20.500171-2.284559-0.21737-88.08922-8.890436v-111.632572l107.835117-18.230827 78.222792 9.129543 0.028258 0.495604v0.232585z" fill="#E94C4C" p-id="3494"></path><path d="M722.025111 553.230776l-100.238033 20.502345-2.284559-0.21737v-114.440993l97.996947-14.696391z" opacity=".1" p-id="3495"></path><path d="M717.499466 444.610953l-0.028258 0.028258-97.968689 14.433373-88.08922-6.086362 107.835117-18.230827 78.222792 9.129542 0.028258 0.495604z" opacity=".05" p-id="3496"></path><path d="M774.40695 441.191722l-100.229338 20.500171-2.284559-0.21737-88.08922-8.890436v-111.632571l107.832943-18.230828 78.222792 9.129543 0.028258 0.495604v0.232586z" fill="#3F3D56" p-id="3497"></path><path d="M774.40695 441.191722l-100.238033 20.502345-2.284559-0.21737V347.035704l97.996947-14.696391z" opacity=".1" p-id="3498"></path><path d="M769.881305 332.571899l-0.028258 0.028259-97.968689 14.433372-88.08922-6.086362 107.832943-18.230827 78.222793 9.129542 0.028258 0.495604z" opacity=".05" p-id="3499"></path><path d="M842.687236 212.981409c-1.06294 9.457772-8.279626 17.083114-10.957625 26.19092-4.014825 13.75083 2.910585 28.518953 12.455305 39.287466a86.96759 86.96759 0 0 0 60.5593 28.723281 26.062671 26.062671 0 0 0 10.009892-1.086851 21.737007 21.737007 0 0 0 7.607952-5.216881c7.157996-7.20147 11.014141-17.172235 12.542253-27.223428a145.618382 145.618382 0 0 0 0.349966-30.431809 17.209188 17.209188 0 0 0-1.134672-6.140705 15.596302 15.596302 0 0 0-3.943093-4.845178 91.673652 91.673652 0 0 0-16.954865-12.324883 19.037271 19.037271 0 0 1-7.10148-5.434252 17.767829 17.767829 0 0 1-2.197612-6.503712l-1.875903-9.54472a18.713389 18.713389 0 0 0-2.749732-7.740548c-3.301851-4.451739-9.631668-5.064723-15.176778-5.282093l-20.371922-0.799922c-6.329816-0.247802-14.652916-2.067189-20.837095-0.815137-5.818997 1.149888-3.856145 6.475454-2.808421 11.303243a81.731145 81.731145 0 0 1 2.58453 17.885209z" fill="#FFC0C6" p-id="3500"></path><path d="M842.687236 212.981409c-1.06294 9.457772-8.279626 17.083114-10.957625 26.19092-4.014825 13.75083 2.910585 28.518953 12.455305 39.287466a86.96759 86.96759 0 0 0 60.5593 28.723281 26.062671 26.062671 0 0 0 10.009892-1.086851 21.737007 21.737007 0 0 0 7.607952-5.216881c7.157996-7.20147 11.014141-17.172235 12.542253-27.223428a145.618382 145.618382 0 0 0 0.349966-30.431809 17.209188 17.209188 0 0 0-1.134672-6.140705 15.596302 15.596302 0 0 0-3.943093-4.845178 91.673652 91.673652 0 0 0-16.954865-12.324883 19.037271 19.037271 0 0 1-7.10148-5.434252 17.767829 17.767829 0 0 1-2.197612-6.503712l-1.875903-9.54472a18.713389 18.713389 0 0 0-2.749732-7.740548c-3.301851-4.451739-9.631668-5.064723-15.176778-5.282093l-20.371922-0.799922c-6.329816-0.247802-14.652916-2.067189-20.837095-0.815137-5.818997 1.149888-3.856145 6.475454-2.808421 11.303243a81.731145 81.731145 0 0 1 2.58453 17.885209z" opacity=".1" p-id="3501"></path><path d="M972.04851 638.963705l-8.642634 94.753786c-2.256301 24.85192-4.564771 49.806004-8.977383 74.340563-1.454206 8.453522-3.317067 16.86357-5.434252 25.201885-5.908118 23.149912-14.476847 45.775963-17.241794 69.508427-0.086948 0.684716-0.160854 1.454206-0.232586 2.080231a62.313477 62.313477 0 0 1-2.910585 15.433275c-1.454206 3.623559-3.506179 6.92541-4.999511 10.505496-2.910585 7.157996-3.375757 15.074614-3.738766 22.823857a98.418645 98.418645 0 0 0-33.887993-11.640167c-5.82117-0.858612-12.148813-1.454206-16.004958-5.818997-4.364791-4.743015-3.856145-12.005349-3.127956-18.376466q3.432273-29.684056 6.838463-59.342028a154.637066 154.637066 0 0 1 4.364791-25.201886c0.784706-2.749731 1.738961-5.455989 2.691041-8.162246 1.323784-3.725723 2.662783-7.449272 3.667033-11.277159a135.808471 135.808471 0 0 0 2.882327-18.667741c2.343249-19.904577 5.164713-39.76568 7.638385-59.657215l0.130422-1.047724c3.710507-30.149228 6.534144-60.441921 5.719006-90.810693a356.384747 356.384747 0 0 0-0.595594-13.503029c-0.406482-6.531971-1.00425-9.999023 4.364791-14.08558 5.979851-4.510429 13.852994-7.668816 20.691457-10.622875 3.682249-1.599844 44.219593-16.004958 45.106462-12.824834a78.983588 78.983588 0 0 1 2.910586 20.691456 230.079695 230.079695 0 0 1-1.193362 25.710532z" fill="#605D82" p-id="3502"></path><path d="M954.428493 808.053706c-1.454206 8.453522-3.317067 16.86357-5.434252 25.201886-5.908118 23.149912-14.476847 45.775963-17.241794 69.508427-0.086948 0.684716-0.160854 1.456379-0.232586 2.080231-18.072147-25.812696-33.2924-53.575201-50.927633-79.663956 1.323784-3.725723 2.662783-7.449272 3.667033-11.277159a135.747607 135.747607 0 0 0 3.025792-18.785121c2.343249-19.904577 5.164713-39.76568 7.638384-59.657215l0.130422-1.047724a61.783094 61.783094 0 0 0 4.364791 12.237935c11.844495 24.067214 39.985224 36.231243 53.749096 59.263775q0.6695 1.078156 1.260747 2.138921z" opacity=".1" p-id="3503"></path><path d="M807.788471 596.461335c0.595594 19.293767 3.682249 38.428854 6.766731 57.490036l6.358074 39.293987c3.477921 21.534853 7.114522 43.491403 17.300484 62.772128 7.625342 14.433372 18.596009 26.736518 28.534169 39.678732 24.415006 31.807762 42.763213 67.849893 65.913125 100.587999 6.738472 9.516462 16.354924 19.817629 27.836411 17.824345 7.53622-1.30422 13.007425-7.581868 18.911196-12.411831 6.9841-5.703791 15.394148-9.87947 20.893611-17.037465s6.577618-19.032923-0.869481-24.128078a40.230852 40.230852 0 0 0-8.527427-3.493137c-11.538003-4.364791-19.017707-15.650645-23.760722-27.064747s-7.638384-23.645516-13.968201-34.251002c-13.763873-23.041227-41.919818-35.198735-53.764312-59.278991-6.634134-13.476944-7.275376-29.101505-7.77098-44.043523l-1.304221-38.283216a27.879885 27.879885 0 0 1 1.454206-12.368357c4.525645-10.185961 18.202569-11.146737 29.290617-12.440089a100.038052 100.038052 0 0 0 35.896493-11.320633c6.388506-3.447489 12.607464-7.842712 16.004958-14.244261 3.112739-5.82117 3.536611-12.672675 3.899619-19.278551l3.840929-69.391047c0.33475-5.966808 0.626026-12.148813-1.454206-17.737397-5.282093-14.055149-23.041227-18.654699-38.039762-17.985199-27.908143 1.252052-53.662149 13.259574-80.026964 21.373998a204.599576 204.599576 0 0 1-19.832845 5.164713c-5.818997 1.178146-13.096547 0.697758-18.693826 2.588878-10.009892 3.375757-9.76209 25.288834-11.174995 34.368381a288.519638 288.519638 0 0 0-3.738765 53.618675z" fill="#605D82" p-id="3504"></path><path d="M956.710878 917.036537a17.785219 17.785219 0 0 1 3.899619 9.564283 326.187697 326.187697 0 0 1 5.529895 57.781311 9.564283 9.564283 0 0 0 1.032508 5.238619 6.679782 6.679782 0 0 0 2.721473 2.173701c7.114522 3.390973 15.36589-1.339 21.302267-6.534144 10.985883-9.618625 20.282801-22.539102 20.908826-37.133329a85.465563 85.465563 0 0 1 0.39344-11.261943c0.960776-5.499463 4.175679-10.288125 6.999316-15.08983a128.104876 128.104876 0 0 0 11.640168-25.927902c1.08685-3.404015 1.804172-7.681858-0.869481-10.053366a9.346913 9.346913 0 0 0-3.158387-1.643317l-32.155554-11.931443c-2.793205-1.032508-9.718616 16.761406-10.811987 18.711215-2.691041 4.758231-5.369041 7.449272-10.76634 8.555686s-12.061865-0.49343-17.213535 2.256301c-8.733929 4.643025-4.384354 10.333773 0.547772 15.294158z" fill="#535070" p-id="3505"></path><path d="M907.122245 928.02242a9.794695 9.794695 0 0 0-2.445413-3.099697 10.959799 10.959799 0 0 0-4.932127-1.673749c-6.110273-1.047724-13.357391-1.738961-17.59176 2.825811-3.958309 4.262627-3.273593 11.203253-6.577618 16.004958a49.838609 49.838609 0 0 0-3.375757 4.364791 16.387529 16.387529 0 0 0-1.454206 7.825322c-0.173896 7.405798-0.349966 14.842028 0.173896 22.232611 0.421698 6.199394 1.454206 12.703107 5.340783 17.563501 6.227652 7.799238 17.461338 8.912173 27.412539 9.414298l8.075298 0.421698a16.007132 16.007132 0 0 0 6.605876-0.61081 10.840245 10.840245 0 0 0 5.703791-6.271127c4.206111-10.446805-2.445413-21.695706-6.547187-32.17077-4.727799-12.068386-3.884403-25.432298-10.388115-36.826837z" fill="#535070" p-id="3506"></path><path d="M840.350508 159.654011a6.59066 6.59066 0 0 1 0.452129-3.11274c1.178146-2.080232 4.262627-1.454206 6.590661-0.930344 9.346913 2.356292 19.222035 0.21737 28.868918 0.771664s20.502345 5.369041 22.436939 14.826812a70.147495 70.147495 0 0 0 17.796087-18.276475c2.677999-4.001783 4.999512-8.583944 4.640851-13.385649-0.523862-6.92541-6.329816-12.105339-11.640167-16.500561l-16.004958-13.096547a24.312842 24.312842 0 0 0-7.188428-4.564771c-3.695291-1.265094-7.740548-0.65211-11.640167-0.652111-11.640167 0-24.128078-5.310351-34.498804 0a36.824663 36.824663 0 0 0-10.753297 9.781653l-14.30295 16.937476a9.036074 9.036074 0 0 0-2.299776 3.884403 17.096156 17.096156 0 0 0 1.032508 6.184179c0.6695 3.782239-0.960776 7.825322 0.291276 11.466271 2.080232 6.023325 9.414298 6.881936 13.896468 10.344641 1.658534 1.28031 4.277843 5.651622 6.271127 5.601627 3.506179-0.082601 5.949419-6.486323 6.051583-9.279528z" fill="#3F3D56" p-id="3507"></path><path d="M864.622049 163.773173m-45.834652 0a45.834652 45.834652 0 1 0 91.669305 0 45.834652 45.834652 0 1 0-91.669305 0Z" fill="#FFC0C6" p-id="3508"></path><path d="M875.357957 264.067723a22.204352 22.204352 0 0 0-21.550069-14.870287 6.475454 6.475454 0 0 1-3.986567-0.508646 5.514679 5.514679 0 0 1-1.643317-2.036757 81.089904 81.089904 0 0 1-6.679783-15.802804c-0.72819-2.430197-1.738961-5.297309-4.190894-5.921161a5.623364 5.623364 0 0 0-5.325567 2.328034 50.905896 50.905896 0 0 1-3.812671 4.782141c-5.82117 5.151671-16.004958 0.449956-22.102189 5.179929-1.00425 0.771664-1.834603 1.760698-2.910585 2.473671a13.240011 13.240011 0 0 1-3.360541 1.454206 322.112008 322.112008 0 0 0-34.744432 13.581282c4.073515 24.501954 8.236152 49.471254 17.780872 72.384232 4.538687 10.911977 9.675142 21.606585 13.313917 32.855486 8.060082 24.925826 8.410048 51.597133 8.512211 77.801095 0 17.926509 0 36.231243-5.82117 53.196976a51.494969 51.494969 0 0 0-3.273593 11.640167 12.107513 12.107513 0 0 0 4.103947 10.88372 13.835605 13.835605 0 0 0 6.329816 2.225869c10.053366 1.454206 20.180637-1.193362 30.075323-3.493137 26.519148-6.140704 53.590416-9.6621 80.581257-13.094373l45.252101-5.82117a26.471327 26.471327 0 0 0 9.370824-2.430197c8.279626-4.525645 9.064332-16.98095 3.912661-24.895394-2.458455-3.797455-5.936377-6.912368-8.016608-10.927194s-2.241085-9.6621 1.323783-12.440089c7.275376-5.675532 5.092981-16.19407 5.434252-25.390997q1.456379-38.587534-0.39344-77.118553a150.930906 150.930906 0 0 1-0.263017-16.004958 141.220986 141.220986 0 0 1 4.999511-26.714781l13.750831-54.125147c-3.593127-5.675532-10.477237-9.283876-16.98095-10.911977s-13.298701-2.110663-19.715465-4.103947c-13.096547-4.073515-24.85192-14.405114-38.574492-13.444339a7.058006 7.058006 0 0 0-2.997534 0.72819c-3.084481 1.760698-2.608441 6.212437-2.793205 9.764263-0.43474 7.87097-6.227652 14.433372-12.607464 19.045966s-13.676925 7.960092-19.541569 13.211752a8.731756 8.731756 0 0 0-3.456184 6.518929z" fill="#3F3D56" p-id="3509"></path><path d="M693.75396 315.417054a53.844739 53.844739 0 0 1-9.631667 4.962558 32.018611 32.018611 0 0 0-9.240402 4.482171 14.622484 14.622484 0 0 0-3.214903 3.971351 17.650449 17.650449 0 0 0 16.267976 26.301778 35.463927 35.463927 0 0 0 12.033606-3.593127l32.331624-14.070364c5.471205-2.371507 11.379323-5.136455 13.968201-10.520711a2.530188 2.530188 0 0 0 0.319534-1.67375 2.749731 2.749731 0 0 0-1.339-1.454206 72.414664 72.414664 0 0 1-18.813379-17.752613c-1.323784-1.804172-2.910585-6.053756-4.829963-7.144954-6.840636-3.80615-22.36738 12.942214-27.851627 16.491867z" fill="#FFC0C6" p-id="3510"></path><path d="M1039.359326 303.994257l11.916227 13.620408c2.560619 2.910585 5.121239 5.818997 7.449272 8.962168a104.276769 104.276769 0 0 1 13.648666 25.710532c2.591051 6.794988 4.743015 14.042106 3.840929 21.258792a52.399228 52.399228 0 0 1-2.982317 10.809814 133.63477 133.63477 0 0 1-8.10573 19.498095 110.921772 110.921772 0 0 1-9.064332 13.63345 318.78842 318.78842 0 0 1-30.214439 34.561841c-4.073515 4.030041-5.82117 10.564185-7.551436 16.004958-3.273593 10.053366-11.057615 17.896078-18.580793 25.317092a51.199346 51.199346 0 0 1-7.98835 6.868894 25.901817 25.901817 0 0 1-14.550753 4.130031 16.002784 16.002784 0 0 1-6.534144-1.352041c-5.151671-2.445413-7.77098-8.394832-8.307884-14.070365a30.123144 30.123144 0 0 1 2.50193-15.074614c6.838462-15.146346 24.401964-21.708749 36.813794-32.768538 7.275376-6.475454 12.848745-14.622484 18.348208-22.669524a78.627101 78.627101 0 0 0 9.268659-16.25276c2.764947-7.405798 1.686792-16.165812 4.116989-23.673774 1.019466-3.186645 2.910585-6.053756 3.943093-9.20997a10.90763 10.90763 0 0 0-0.55212-9.618625 13.896468 13.896468 0 0 0-5.399472-3.958309c-7.92966-4.016999-16.807054-9.196928-18.319949-17.969984a19.235077 19.235077 0 0 1 3.549653-13.720398 56.733588 56.733588 0 0 1 9.999023-10.477238c3.432273-3.114913 9.277354-6.562402 12.755276-9.559935z" fill="#FFC0C6" p-id="3511"></path><path d="M686.10036 334.421719c-2.095447-4.249585-4.729973-8.583944-8.977384-10.694608a16.520125 16.520125 0 0 0-13.096546 0 49.651671 49.651671 0 0 0-11.466271 6.925411l-10.27291 7.579694a25.275791 25.275791 0 0 0-6.086362 5.632058 23.439014 23.439014 0 0 0-3.171429 8.729582 63.406849 63.406849 0 0 0-1.615059 21.550069c1.630276 11.640167 8.614376 21.708749 16.302755 30.55571 4.801705 5.499463 10.738081 11.057615 18.041715 11.303244a8.277452 8.277452 0 0 0 7.973134-4.016999 9.940333 9.940333 0 0 0 0.712974-3.580085c0.784706-12.920477-3.840929-25.536636-9.225186-37.307225a23.084701 23.084701 0 0 1-2.910585-10.025107 2.708431 2.708431 0 0 1 0.43474-1.686792 2.825811 2.825811 0 0 1 1.738961-0.858612c7.37754-1.454206 20.093689 4.277843 25.258402-3.912661 3.343152-5.410341-1.254225-15.378932-3.640949-20.193679z" fill="#FFC0C6" p-id="3512"></path><path d="M837.935526 145.23368a6.78412 6.78412 0 0 1 0.465172-3.112739c1.178146-2.095447 4.262627-1.454206 6.59066-0.930344 9.346913 2.356292 19.222035 0.21737 28.868919 0.771664s20.487129 5.369041 22.436939 14.826812a70.617014 70.617014 0 0 0 17.796087-18.276475c2.677999-4.016999 4.999512-8.59916 4.640851-13.400865-0.523862-6.92541-6.345032-12.105339-11.640167-16.485346l-16.004958-13.094373a24.243284 24.243284 0 0 0-7.173213-4.564771c-3.710507-1.265094-7.740548-0.65211-11.640167-0.65211-11.640167 0-24.128078-5.310351-34.498803 0a36.820316 36.820316 0 0 0-10.753297 9.781653l-14.318167 16.937476a9.066506 9.066506 0 0 0-2.284559 3.884403 17.100503 17.100503 0 0 0 1.032508 6.184178c0.6695 3.782239-0.960776 7.825322 0.291276 11.451055 2.080232 6.03854 9.414298 6.897152 13.896468 10.359858 1.658534 1.28031 4.277843 5.651622 6.271127 5.601626 3.449663-0.093469 5.892903-6.488497 6.023324-9.281702z" fill="#3F3D56" p-id="3513"></path><path d="M740.592862 270.834453a19.006839 19.006839 0 0 0-4.801704 4.466955c-1.67375 2.545403-2.021542 5.82117-3.462706 8.438306-3.084481 5.732049-10.316383 7.784022-14.811596 12.483563a4.640851 4.640851 0 0 0-1.454206 2.445413 5.397299 5.397299 0 0 0 1.206404 3.521395l21.737007 34.164054c7.275376 0.639068 14.172528-3.899619 21.417473-3.288809 2.691041 0.21737 5.471205 1.149888 8.060082 0.349965a23.417277 23.417277 0 0 0 5.164713-3.158387c4.364791-2.734515 10.068582-3.056223 13.694314-6.64935s3.927877-8.87522 3.884403-13.779089a54.366428 54.366428 0 0 0-1.30422-12.659632c-3.201861-13.096547-13.226969-23.193386-19.511138-34.805296-3.069265-5.651622-4.729973-8.962168-11.203253-5.077764s-12.490084 9.066506-18.615573 13.548676z" fill="#3F3D56" p-id="3514"></path><path d="M1004.55403 253.562227a51.034144 51.034144 0 0 1 10.942409 9.564283c3.301851 4.262627 5.179929 9.501246 8.366574 13.866037s7.275376 7.507962 10.768514 11.407581a86.96759 86.96759 0 0 1 12.427046 20.239327 303.579036 303.579036 0 0 1-28.112471 31.720814 9.009989 9.009989 0 0 1-4.277842 2.793205 6.853678 6.853678 0 0 1-6.029846-2.447587c-1.571586-1.630276-2.677999-3.667033-4.175679-5.36904a21.460947 21.460947 0 0 0-13.283485-6.416765 91.258475 91.258475 0 0 0-15.059398-0.21737 5.82117 5.82117 0 0 1-3.214904-0.539078 5.314698 5.314698 0 0 1-1.73896-2.008499c-5.82117-10.009892-4.001783-22.582576-1.921551-34.018416l4.75823-26.190919a58.863814 58.863814 0 0 1 3.973525-14.550752c1.804172-3.856145 5.818997-10.403331 10.796771-9.240402s11.574956 8.38179 15.781067 11.407581z" fill="#3F3D56" p-id="3515"></path><path d="M589.616308 445.558687l-100.229338 20.500171-2.284559-0.21737-88.08922-8.890436V345.31848l107.832943-18.230827 78.222792 9.129542 0.028259 0.495604v0.232586z" fill="#E94C4C" p-id="3516"></path><path d="M589.616308 445.556513l-100.238033 20.502345-2.284559-0.21737v-114.440993l97.996947-14.696391z" opacity=".1" p-id="3517"></path><path d="M585.090663 336.938864l-0.028258 0.028258-97.968689 14.433373-88.08922-6.086362 107.832943-18.230828 78.222793 9.129543 0.028258 0.495604z" opacity=".05" p-id="3518"></path><path d="M641.998147 334.973839l-100.229338 20.515387-2.284559-0.232586-88.08922-8.890436v-111.632572l107.832943-18.230828 78.222792 9.129543 0.028258 0.495604v0.232586z" fill="#3F3D56" p-id="3519"></path><path d="M641.998147 334.973839l-100.238033 20.515387-2.284559-0.232586v-114.43882l97.996947-14.69639z" opacity=".1" p-id="3520"></path><path d="M637.472502 226.354016l-0.028258 0.028258-97.968689 14.433373-88.08922-6.086362 107.832943-18.230828 78.222793 9.129543 0.028258 0.495604z" opacity=".05" p-id="3521"></path></svg>